<?xml version="1.0" standalone="no"?>
<!DOCTYPE svg PUBLIC "-//W3C//DTD SVG 20010904//EN"
 "http://www.w3.org/TR/2001/REC-SVG-20010904/DTD/svg10.dtd">
<svg version="1.0" xmlns="http://www.w3.org/2000/svg"
 width="451.000000pt" height="451.000000pt" viewBox="0 0 451.000000 451.000000"
 preserveAspectRatio="xMidYMid meet">
<metadata>
Created by potrace 1.14, written by Peter Selinger 2001-2017
</metadata>
<g transform="translate(0.000000,451.000000) scale(0.100000,-0.100000)"
fill="#000000" stroke="none">
<path d="M1710 4478 c-12 -13 -31 -39 -43 -58 -11 -19 -36 -53 -54 -76 -18
-23 -33 -46 -33 -51 0 -6 -7 -14 -16 -17 -9 -4 -14 -9 -11 -12 3 -3 -5 -16
-17 -28 -13 -11 -21 -26 -19 -33 2 -6 -5 -18 -16 -25 -12 -8 -18 -18 -14 -21
3 -4 1 -7 -5 -7 -7 0 -12 -5 -12 -11 0 -6 -13 -28 -29 -48 -39 -49 -171 -271
-171 -287 0 -7 -9 -18 -19 -23 -16 -9 -22 -6 -37 17 -9 15 -25 36 -35 47 -10
11 -33 40 -52 65 -79 106 -163 216 -179 234 -9 10 -22 31 -28 47 -7 16 -16 27
-20 24 -4 -3 -11 6 -14 20 -4 14 -11 25 -17 25 -6 0 -7 5 -3 12 4 7 3 8 -4 4
-8 -5 -8 -13 -2 -24 25 -46 180 -373 180 -380 0 -5 11 -25 24 -45 13 -19 35
-64 47 -99 12 -35 25 -67 29 -73 26 -37 19 -66 -44 -197 -77 -159 -142 -318
-184 -448 -17 -52 -37 -110 -45 -129 -13 -31 -13 -39 4 -79 11 -24 19 -62 19
-85 -1 -42 -21 -93 -37 -91 -17 2 -43 -9 -43 -18 0 -5 -6 -6 -12 -3 -7 4 1 -6
17 -23 32 -31 47 -54 77 -115 22 -45 10 -82 -23 -72 -16 5 -19 1 -19 -28 0
-18 3 -37 7 -41 4 -4 9 -19 11 -33 2 -15 7 -34 13 -44 5 -10 9 -32 9 -49 0
-17 9 -49 20 -70 11 -22 17 -40 13 -40 -4 0 12 -18 35 -39 23 -22 42 -44 42
-51 0 -6 9 -23 20 -38 27 -38 62 -146 58 -179 -3 -25 -7 -28 -35 -26 -38 2
-40 -4 -14 -55 12 -24 16 -44 10 -57 -13 -33 -10 -45 10 -45 17 0 19 -4 10
-32 -5 -18 -9 -48 -9 -66 0 -18 -7 -46 -15 -62 -14 -27 -14 -29 1 -23 15 5 16
0 11 -38 -3 -24 -9 -54 -13 -66 -5 -18 -2 -23 11 -23 11 0 15 -5 11 -16 -7
-17 15 -44 37 -44 21 0 28 -12 16 -26 -19 -23 41 -88 128 -139 18 -11 33 -23
33 -28 0 -4 12 -19 28 -32 21 -18 24 -26 15 -36 -9 -9 -1 -19 35 -43 71 -49
225 -209 227 -236 0 -3 9 -18 21 -35 11 -16 35 -56 53 -89 18 -32 55 -89 82
-126 27 -37 49 -71 49 -74 0 -4 20 -42 44 -84 25 -42 56 -113 70 -158 34 -107
45 -116 116 -97 30 8 66 15 80 17 14 1 34 7 46 14 55 30 146 33 239 8 11 -3
52 -15 92 -27 87 -26 91 -25 128 69 41 105 134 281 180 342 23 30 57 82 75
115 91 165 194 288 302 361 31 21 43 35 36 42 -12 12 10 52 29 52 7 0 13 6 13
13 0 7 15 21 33 32 87 51 144 115 131 149 -4 11 0 16 11 16 23 0 44 23 42 46
-1 11 3 18 12 16 10 -2 12 3 7 20 -4 13 -10 43 -13 67 -5 38 -4 43 11 38 15
-6 15 -4 2 21 -8 15 -15 48 -17 72 -1 25 -7 53 -11 63 -8 14 -5 20 11 24 23 6
26 15 11 44 -8 14 -7 26 3 46 8 16 17 38 21 50 6 19 4 21 -23 18 -17 -2 -33 1
-37 7 -12 19 -6 67 10 90 9 12 16 35 16 50 0 14 7 33 15 42 8 8 15 19 15 25 0
6 5 11 10 11 6 0 10 7 10 16 0 8 18 33 40 53 23 21 40 42 38 47 -1 5 6 23 15
41 9 18 17 45 17 60 0 15 9 53 19 83 19 59 22 109 6 111 -18 2 -45 20 -45 30
0 24 55 121 88 155 20 21 23 52 3 40 -4 -3 -22 8 -39 24 -27 25 -32 36 -32 75
0 26 7 62 16 81 20 41 17 57 -36 209 -56 163 -106 284 -184 447 -36 76 -66
142 -66 147 0 19 65 177 91 222 15 25 30 57 34 70 4 13 39 86 77 162 73 147
92 188 90 199 -1 3 5 12 13 18 8 7 15 17 15 23 0 5 -16 -11 -35 -36 -19 -25
-35 -50 -35 -56 0 -5 -6 -16 -13 -23 -15 -15 -177 -230 -222 -293 -49 -69 -83
-105 -99 -105 -9 0 -26 25 -42 60 -15 33 -31 60 -35 60 -5 0 -9 6 -9 13 0 6
-36 65 -80 130 -44 66 -80 123 -80 128 0 5 -4 9 -9 9 -5 0 -14 14 -21 30 -7
17 -22 37 -34 46 -11 8 -19 17 -18 20 2 3 -18 35 -46 72 -27 37 -62 86 -77
110 -17 26 -34 42 -44 40 -13 -3 -16 -20 -16 -108 0 -57 3 -140 8 -185 4 -44
9 -105 12 -135 16 -212 24 -291 31 -301 2 -4 7 -52 10 -106 4 -88 10 -138 14
-138 5 0 22 -225 21 -270 -1 -16 -6 -31 -11 -33 -6 -2 -10 -10 -10 -17 0 -8
-8 -20 -18 -27 -10 -7 -33 -33 -52 -58 -19 -25 -37 -47 -40 -50 -15 -13 -101
-130 -96 -130 3 0 -4 -10 -15 -22 -40 -45 -109 -138 -103 -138 4 0 -5 -11 -21
-24 l-28 -24 -56 20 c-65 22 -90 29 -111 30 -8 0 -21 6 -29 12 -11 8 -13 8 -8
0 4 -7 -4 -11 -21 -12 -15 0 -48 -8 -72 -17 -68 -26 -107 -29 -125 -12 -8 9
-15 19 -15 24 0 4 -12 20 -28 34 -15 14 -34 39 -42 55 -8 16 -22 36 -30 44 -8
8 -21 27 -29 42 -8 15 -18 25 -23 22 -4 -3 -8 0 -8 7 0 14 -70 108 -115 156
-48 50 -62 69 -70 93 -10 33 -7 139 9 255 4 32 15 145 22 220 3 38 7 72 9 75
2 3 6 35 9 71 11 126 18 205 22 244 8 74 13 139 18 257 7 152 0 173 -44 126z
m-62 -1818 c23 -44 21 -66 -9 -75 -31 -10 -39 3 -39 61 0 66 17 71 48 14z
m1250 0 c7 -70 -25 -105 -59 -64 -11 13 -9 23 11 60 26 51 44 52 48 4z"/>
<path d="M836 4297 c3 -10 9 -15 12 -12 3 3 0 11 -7 18 -10 9 -11 8 -5 -6z"/>
</g>
</svg>
